<svg width="32" height="32" viewBox="0 0 32 32" fill="none" xmlns="http://www.w3.org/2000/svg">
<path d="M32 15.416C32 15.8204 32 16.2242 32 16.6285C31.9897 16.662 31.9778 16.695 31.9789 16.7321C31.9815 16.8461 31.9804 16.9601 31.9809 17.074C31.9773 17.1483 31.9758 17.222 31.9696 17.2963C31.9047 18.0565 31.7955 18.8104 31.6239 19.5546C30.9114 22.6452 29.4256 25.3094 27.1432 27.5042C24.2674 30.27 20.8264 31.7758 16.8352 31.9976C16.7713 32.0012 16.7028 31.995 16.6497 32.0445C16.2211 32.0445 15.793 32.0445 15.3643 32.0445C15.3056 31.9842 15.2273 32.0053 15.1572 31.9991C14.9027 31.9764 14.6477 31.9651 14.3937 31.9393C13.5735 31.8568 12.7641 31.7108 11.9671 31.4994C9.06193 30.7289 6.56736 29.2545 4.48751 27.0891C2.48906 25.0082 1.15316 22.556 0.471557 19.7495C0.298452 19.0358 0.176865 18.3133 0.106284 17.582C0.0789782 17.2989 0.0676439 17.0147 0.0429145 16.7311C0.0393081 16.6862 0.0408539 16.6398 0.00685096 16.6037C0.00530537 16.3871 0.0011838 16.1705 0.00221419 15.9539C0.00272939 15.7739 -0.00654417 15.5945 0.0094269 15.4145C0.0619769 15.3294 0.0511577 15.2319 0.0552793 15.1396C0.0764023 14.6946 0.120709 14.2521 0.181502 13.8112C0.312362 12.8664 0.522047 11.9397 0.821376 11.0341C1.6462 8.54269 2.98726 6.36847 4.877 4.54906C7.79249 1.74154 11.2747 0.222786 15.3221 0.0226911C15.3535 0.0211439 15.3891 0.0319739 15.4133 0C15.8089 0 16.2041 0 16.5998 0C16.626 0.0288796 16.6611 0.0216596 16.6935 0.0226911C17.4653 0.0422879 18.2288 0.136662 18.9867 0.277966C20.5183 0.564184 21.9753 1.06855 23.3581 1.78641C25.1443 2.71365 26.6992 3.93743 28.0299 5.44793C28.1834 5.62224 28.1731 5.60058 28.0237 5.74962C27.5302 6.24161 27.0361 6.73256 26.5425 7.22351C25.5693 8.1915 24.5961 9.15948 23.6229 10.1275C23.4977 10.2523 23.4951 10.2528 23.3808 10.1089C23.1288 9.79225 22.8578 9.49263 22.5647 9.21466C20.8424 7.58296 18.8012 6.69233 16.4282 6.57527C15.4875 6.52886 14.5575 6.61756 13.6508 6.86871C10.6333 7.70415 8.51892 9.58442 7.27833 12.4523C6.87544 13.3831 6.66782 14.364 6.60703 15.3768C6.55345 16.2711 6.61012 17.1566 6.80074 18.0322C7.05576 19.2055 7.52562 20.2879 8.19537 21.2832C8.22371 21.325 8.2505 21.3658 8.24329 21.4194C8.23968 21.4452 8.24071 21.4699 8.27214 21.4777C8.35199 21.4973 8.3896 21.5643 8.4334 21.6231C8.72706 22.0171 9.04493 22.3905 9.39733 22.7329C11.0058 24.2976 12.9233 25.2 15.1588 25.4172C16.0547 25.5043 16.946 25.46 17.827 25.281C20.2128 24.7962 22.133 23.5673 23.6028 21.6283C23.6126 21.6154 23.6245 21.603 23.6322 21.5885C23.6518 21.553 23.6507 21.5241 23.6013 21.52C23.5683 21.5174 23.5353 21.5179 23.5024 21.5179C23.2386 21.5179 22.9748 21.5169 22.7115 21.5179C22.371 21.5194 22.4472 21.4895 22.2139 21.7324C20.1912 23.8391 17.728 24.7184 14.8321 24.3636C13.8589 24.2444 12.945 23.9221 12.0758 23.4678C9.89655 22.3296 7.9589 19.9651 7.64411 16.9441C7.55962 16.1355 7.57147 15.3309 7.72036 14.5306C8.00527 13.0015 8.64566 11.6436 9.66935 10.4689C11.6333 8.21677 14.5756 7.18329 17.4978 7.70209C19.1237 7.99089 20.5467 8.70308 21.7574 9.83093C22.099 10.1491 22.4153 10.49 22.6976 10.8623C22.7723 10.9608 22.7713 10.9701 22.6873 11.0593C22.6791 11.0681 22.6703 11.0769 22.6616 11.0856C22.0655 11.6787 21.4694 12.2718 20.8738 12.8648C20.7085 13.0293 20.7229 13.034 20.5843 12.836C19.4107 11.1656 17.3957 10.1429 15.0701 10.523C13.8991 10.7143 12.8924 11.2533 12.0696 12.1006C10.8723 13.3336 10.3406 14.8204 10.4901 16.5413C10.5467 17.1968 10.724 17.8198 11.0073 18.4128C11.0645 18.5319 11.116 18.6516 11.1861 18.7666C11.4535 19.2055 11.7487 19.6222 12.1227 19.9749C13.5807 21.3487 15.2973 21.8608 17.2556 21.4302C18.8053 21.0893 19.9815 20.1956 20.8048 18.8378C20.8239 18.8063 20.8424 18.7738 20.863 18.7434C20.9027 18.6856 20.9573 18.6526 21.0289 18.6516C21.066 18.6511 21.1031 18.6506 21.1402 18.6506C23.3483 18.6506 25.557 18.6506 27.7651 18.6506C27.7981 18.6506 27.831 18.65 27.864 18.6511C28.0325 18.6547 28.0407 18.6645 28.0026 18.8311C27.7898 19.7547 27.4658 20.6381 27.0459 21.4869C25.2211 25.1825 21.355 28.152 16.4308 28.3252C15.4133 28.3613 14.405 28.2711 13.4122 28.0498C10.979 27.5083 8.88522 26.3475 7.16035 24.543C5.03207 22.3172 3.89606 19.6552 3.7276 16.5821C3.66938 15.5233 3.76108 14.4733 3.98725 13.4362C4.52048 10.9975 5.66267 8.88822 7.46792 7.16524C9.61062 5.12046 12.1552 3.93794 15.1278 3.72908C16.1428 3.65791 17.1521 3.70072 18.1557 3.8776C19.6724 4.14526 21.0887 4.6785 22.4045 5.47991C22.7388 5.68361 23.0624 5.90382 23.3777 6.13589C23.4792 6.21066 23.4823 6.21015 23.5735 6.12042C23.712 5.98478 23.8496 5.84864 23.9851 5.71043C24.0505 5.6439 24.0485 5.63256 23.9799 5.57428C23.9614 5.55829 23.9408 5.54437 23.9207 5.52941C23.474 5.18956 23.0062 4.8822 22.5204 4.60269C20.7625 3.5919 18.8692 3.03184 16.8481 2.89828C16.1356 2.85135 15.4241 2.86372 14.7136 2.93798C14.0284 3.00915 13.3515 3.12416 12.6869 3.30311C10.3638 3.92763 8.34478 5.08281 6.66782 6.81198C4.1856 9.37143 2.94089 12.4466 2.89452 16.0101C2.88834 16.4805 2.92492 16.9492 2.97386 17.417C3.05063 18.1524 3.18406 18.877 3.39014 19.5866C4.17427 22.2847 5.65443 24.5224 7.8471 26.2779C9.96971 27.9771 12.3973 28.9126 15.1052 29.1179C15.7636 29.1679 16.422 29.1586 17.0799 29.1034C17.779 29.0446 18.4694 28.9379 19.15 28.7703C22.9434 27.8363 26.1608 25.2155 27.8537 21.6881C28.4029 20.5437 28.7754 19.3447 28.9799 18.0926C29.0062 17.9301 29.0273 17.7661 29.049 17.6032C29.0644 17.4887 29.0448 17.4644 28.9279 17.4541C28.8707 17.449 28.8125 17.45 28.7548 17.45C24.6719 17.45 20.5889 17.45 16.506 17.4495C16.4483 17.4495 16.3906 17.4479 16.3329 17.4448C16.2922 17.4423 16.2711 17.4221 16.2896 17.3793C16.3128 17.3257 16.3231 17.27 16.3231 17.2107C16.3226 16.3943 16.3231 15.5775 16.3236 14.7611C16.3236 14.7322 16.3226 14.7033 16.3246 14.6745C16.3308 14.6002 16.3483 14.5806 16.4231 14.5754C16.4885 14.5708 16.5549 14.5723 16.6209 14.5723C21.6513 14.5723 26.6816 14.5723 31.7125 14.5723C31.7496 14.5723 31.7867 14.5713 31.8238 14.5729C31.9299 14.577 31.9423 14.5868 31.9603 14.691C31.9681 14.7353 31.9722 14.7807 31.9732 14.8261C31.9763 14.9705 31.9778 15.1149 31.9784 15.2593C31.9784 15.3144 31.982 15.366 32 15.416Z" fill="white"/>
</svg>
