<svg width="187" height="373" viewBox="0 0 187 373" fill="none" xmlns="http://www.w3.org/2000/svg">
<path fill-rule="evenodd" clip-rule="evenodd" d="M187 323.52C182.812 323.536 178.609 323.359 174.403 322.986C138.901 319.839 106.022 302.983 82.7437 275.995C59.465 249.006 47.6185 214.009 49.7178 178.43C51.8171 142.851 67.6971 109.49 93.9881 85.4259C119.408 62.1593 152.626 49.3547 187 49.4811V0.00117203C140.278 -0.125306 95.1359 17.2991 60.581 48.9267C24.796 81.6801 3.1815 127.088 0.324078 175.515C-2.53335 223.942 13.5912 271.577 45.276 308.312C76.9609 345.046 121.712 367.989 170.034 372.272C175.698 372.774 181.359 373.016 187 373.001V323.52Z" fill="#87B7FF" fill-opacity="0.2"/>
</svg>
